<?xml version="1.0" encoding="utf-8"?>
<!-- Generator: Adobe Illustrator 26.3.1, SVG Export Plug-In . SVG Version: 6.00 Build 0)  -->
<svg version="1.1" id="Calque_1" xmlns="http://www.w3.org/2000/svg" xmlns:xlink="http://www.w3.org/1999/xlink" x="0px" y="0px"
	 viewBox="0 0 850 300" style="enable-background:new 0 0 850 300;" xml:space="preserve">
<style type="text/css">
	.st0{fill:#1D1D1B;}
</style>
<g>
	<polygon class="st0" points="677.1,106.5 702.6,43.7 699.4,43.7 675.3,103.6 675.2,103.6 651,43.7 647.7,43.7 673.2,106.5 	"/>
	<path class="st0" d="M718.8,95.2c0,9.7,5.4,12.2,12.2,12.2c1.8,0,3.3-0.2,4.8-0.5v-2.8c-1.1,0.2-2.2,0.2-3.7,0.2
		c-7,0-10.1-2.1-10.1-10.3V46.7h12.7v-3h-12.7V28.5h-3.1v15.2h-9.7v3h9.7V95.2z"/>
	<path class="st0" d="M768.4,104.7c-9.3,0-20.3-3-21.9-13.8h-3c1.1,12.1,12.6,16.8,24.8,16.8c11.1,0,23.3-3.9,23.3-17.6
		c0-10.1-6.5-13.8-17.4-16.4l-11.6-2.8c-10.3-2.5-13.8-6.3-13.8-12.6c0-8.9,6.9-12.8,18.7-12.8c10.9,0,18.4,3.3,20,13.2h2.9
		c-1.2-11.8-10.7-16.2-22.9-16.2c-13.3,0-21.9,5.3-21.9,15.6c0,8.8,6.2,13.2,15.7,15.7l12.1,2.9c8.9,2.3,15,4.6,15,13.3
		C788.4,100.7,779.1,104.7,768.4,104.7z"/>
	<polygon class="st0" points="102.2,207.6 121.8,136.3 141.4,207.6 171.6,207.6 199.1,99.5 169.1,99.5 155.1,166.2 154,166.2 
		136.7,99.5 106.9,99.5 89.7,166.2 88.4,166.2 74.5,99.5 44.4,99.5 72.1,207.6 	"/>
	<path class="st0" d="M230.6,125.8c-21.6,0-41.8,11-41.8,41.2c0,31.9,22.4,42.1,41.7,42.1c20.8,0,35.3-11.3,38.6-29.8h-24.8
		c-0.9,3.7-2.8,8.3-13.3,8.3c-8.3,0-13.6-3.4-15-13.3h53.7c0.3-1.9,0.5-3.4,0.5-6.5C270.1,135.5,251.2,125.8,230.6,125.8z
		 M216,158.3c1.4-7.3,5.6-11.1,13.7-11.1c10.7,0,13,6.6,13.4,11.1H216z"/>
	<path class="st0" d="M273.6,99.5v108h28.6v-7.7c2.3,4.3,10.2,9.3,20.8,9.3c16.5,0,34.4-11.7,34.4-41.7c0-29.8-17.9-41.7-34.4-41.7
		c-10.6,0-18.5,4.9-20.8,9.3V99.5H273.6z M315.6,149.4c7.1,0,15,5.6,15,18.1s-7.9,18.1-15,18.1c-6.9,0-14.7-5.6-14.7-18.1
		S308.6,149.4,315.6,149.4z"/>
	<path class="st0" d="M441.7,207.6v-108h-28.6V135c-2.3-4.3-10.2-9.3-20.8-9.3c-16.5,0-34.4,11.9-34.4,41.7
		c0,29.9,17.9,41.7,34.4,41.7c10.7,0,18.5-4.9,20.8-9.3v7.7H441.7z M399.7,185.5c-7.1,0-15-5.6-15-18.1s7.9-18.1,15-18.1
		c6.9,0,14.7,5.6,14.7,18.1S406.6,185.5,399.7,185.5z"/>
	<path class="st0" d="M526.5,167.9c0-32.4-18.8-42.1-39.5-42.1c-21.6,0-41.8,11-41.8,41.2c0,31.9,22.4,42.1,41.7,42.1
		c20.8,0,35.3-11.3,38.6-29.8h-24.9c-0.9,3.7-2.8,8.3-13.3,8.3c-8.3,0-13.6-3.4-15-13.3h53.7C526.4,172.5,526.5,171,526.5,167.9z
		 M472.5,158.3c1.4-7.3,5.6-11.1,13.7-11.1c10.6,0,13,6.6,13.4,11.1H472.5z"/>
	<path class="st0" d="M575.8,159.4l-15.4-2.8c-4.2-0.8-7.4-2.3-7.4-5.7c0-2.8,2.3-5.1,9-5.1c7.1,0,11.3,2.8,11.9,9h23.3
		c0.2-17.3-11.6-29-35.2-29c-20.7,0-34.9,9.3-34.9,26.1c0,9.7,4.5,20.8,23.2,24.4L564,179c6,1.1,6.8,3.9,6.8,5.2
		c0,3.2-3.5,4.8-9.1,4.8c-9.9,0-11-4.8-11.4-8.2h-24.9c-0.3,17.7,12.3,28.2,35.3,28.2c22.2,0,38.3-9.4,38.3-26.2
		C599.1,168.5,588,161.6,575.8,159.4z"/>
	<path class="st0" d="M616,91.5c-7.9,0-15,6.5-15,15.1s7.1,15,15,15c8,0,15.1-6.3,15.1-15S624.1,91.5,616,91.5z"/>
	<rect x="601.8" y="127.3" class="st0" width="28.6" height="80.3"/>
	<path class="st0" d="M668.2,203.9c13.1,0,18.1-5.9,19.4-9.9h0.3v9.6c0,10-4.2,15-14.2,15c-5.6,0-11.9-1.4-12.3-7.9h-25.9
		c-0.6,26.7,24.8,29.2,37.8,29.2c16.4,0,43.2-4.6,43.2-36.3v-76.2H688v9.1h-0.3c-1.4-4.3-6.3-10.6-19.4-10.6
		c-15.9,0-34.3,10.3-34.3,39.4C633.9,194,652.3,203.9,668.2,203.9z M675,149.1c7.6,0,14,5.1,14,16.1c0,11.1-6.5,16.2-14,16.2
		c-8,0-14.2-5.1-14.2-16.2C660.8,154.2,667,149.1,675,149.1z"/>
	<path class="st0" d="M753.7,144.6h-1.2v-17.3h-28.6v80.3h28.6V163c0-10.3,6.2-13.7,12.8-13.7c6.5,0,11.3,3.4,11.3,13.7v44.6h28.6
		v-51.7c0-19.3-11.6-30.1-27-30.1C763,125.8,755.2,136,753.7,144.6z"/>
	<path class="st0" d="M80.3,244.2c2.9,0,5.5,1.3,5.6,5.1H88c0.2-5.4-3.6-7.1-7.3-7.1c-5.3,0-10.5,3.6-11.7,10.7
		c-1.3,7.2,2.6,10.7,7.9,10.7c3.7,0,8.1-1.7,9.8-7.2h-2.1c-1.4,3.9-4.5,5.2-7.4,5.2c-4.2,0-7-2.8-6-8.6
		C72.3,247.1,76.1,244.2,80.3,244.2z"/>
	<path class="st0" d="M94.9,247.1L94.9,247.1l0.7-4.5h-2.3l-3.6,20.6H92l2-11.4c0.7-4.2,3.6-7.3,8.1-7.3c0.5,0,1,0,1.5,0.1l0.3-2
		c-0.4-0.2-1-0.2-1.5-0.2C98.2,242.4,95.8,245.2,94.9,247.1z"/>
	<polygon class="st0" points="114.8,240.2 117,240.2 121.9,235 119.7,235 	"/>
	<path class="st0" d="M115.7,242.2c-5.2,0-10,3.3-11.3,10.8c-1.3,7.1,2,10.6,7.8,10.6c3.6,0,7.3-1.4,9.6-5.9h-2.2
		c-1.7,3.2-4.5,4-7,4c-4.6,0-6.8-2.7-6-8h16c0.1-0.4,0.3-0.8,0.4-1.4C124.1,245.7,121,242.2,115.7,242.2z M120.8,251.8h-13.9
		c1.2-5.2,4.6-7.7,8.5-7.7C119.4,244.1,121.6,246.7,120.8,251.8z"/>
	<path class="st0" d="M137.3,242.2c-5.1,0-8.4,1.8-9.1,5.9l-0.1,0.6h2.3l0.1-0.5c0.5-2.8,2.6-4.2,6.5-4.2c3.8,0,5.5,1.3,4.8,5
		l-0.2,1.1c-0.1,0.6-0.9,1.2-3.3,1.4l-5.5,0.6c-4.4,0.5-6.9,2.5-7.5,5.8c-0.7,3.7,1.7,5.5,5.7,5.5c5,0,8.1-2.9,8.9-4.2h0.1l-0.7,3.8
		h2.3l2.5-14.1C145,244.2,142.7,242.2,137.3,242.2z M140.5,256.1c-0.3,1.9-3.5,5.5-8.7,5.5c-2.7,0-4.7-0.9-4.2-3.7
		c0.3-2,1.7-3.4,5.3-3.8l4.8-0.5c2.3-0.3,3.2-0.7,3.4-1.2L140.5,256.1z"/>
	<path class="st0" d="M155.1,237.5h-2.3l-0.9,5.1h-3.3l-0.3,2h3.3l-2.5,14.2c-0.6,3.6,1.2,4.7,3.9,4.7c0.8,0,1.4-0.1,2.1-0.2
		l0.3-1.9c-0.5,0.1-0.8,0.1-1.3,0.1c-2.3,0-3-0.8-2.6-3.2l2.4-13.7h4.1l0.3-2h-4.1L155.1,237.5z"/>
	<path class="st0" d="M171.1,242.2c-5.2,0-10,3.3-11.3,10.8c-1.3,7.1,2,10.6,7.8,10.6c3.6,0,7.3-1.4,9.6-5.9h-2.2
		c-1.7,3.2-4.5,4-7,4c-4.6,0-6.8-2.7-6-8h16c0.1-0.4,0.3-0.8,0.4-1.4C179.4,245.7,176.4,242.2,171.1,242.2z M176.1,251.8h-13.9
		c1.2-5.2,4.6-7.7,8.5-7.7C174.8,244.1,176.9,246.7,176.1,251.8z"/>
	<path class="st0" d="M196.9,254.8c-0.7,4.2-3.7,6.8-7.8,6.8s-5.4-2.6-4.6-6.8l2.2-12.2h-2.3l-2.2,12.6c-1.1,6.3,2,8.4,6,8.4
		c4.9,0,7.4-3.1,8-4.4h0l-0.7,4h2.3l3.6-20.6H199L196.9,254.8z"/>
	<path class="st0" d="M217.3,242.6c-0.4-0.2-1-0.2-1.5-0.2c-4.2,0-6.7,2.9-7.5,4.7h-0.1l0.8-4.5h-2.3l-3.6,20.6h2.3l2-11.4
		c0.7-4.2,3.6-7.3,8.1-7.3c0.5,0,1,0,1.5,0.1L217.3,242.6z"/>
	<path class="st0" d="M227.7,242.2c-4.6,0-7.9,1.9-8.5,5.4c-0.5,2.9,1.1,4.6,4.4,5.4l3.8,0.9c2.4,0.6,3.9,1.3,3.4,3.6
		c-0.5,2.9-3.3,4.1-6.3,4.1c-2.9,0-5.6-0.9-5.5-4h-2.1c-0.5,4.2,2.9,5.9,7.3,5.9c4,0,8.3-1.5,9.1-6c0.6-3.4-1.5-4.7-4.8-5.5
		l-3.7-0.9c-2.7-0.7-3.5-1.7-3.2-3.5c0.4-2.5,2.5-3.6,5.9-3.6c3.1,0,5.1,1,5.1,3.9h2C234.9,244,232.1,242.2,227.7,242.2z"/>
	<path class="st0" d="M265.1,246.3c-1.1-2.7-3.9-4-7-4c-4.9,0-9.9,3.3-11.2,10.7c-1.3,7.4,2.6,10.7,7.5,10.7c3.1,0,6.3-1.3,8.4-4
		l-0.6,3.6h2.3l4.9-27.7H267L265.1,246.3z M264,252.9c-1,5.9-5.3,8.7-9,8.7c-3.8,0-7-2.8-5.9-8.7c1-5.9,5.1-8.7,9-8.7
		C261.8,244.2,265.1,247,264,252.9z"/>
	<path class="st0" d="M281.9,242.2c-5.2,0-10,3.3-11.3,10.8c-1.3,7.1,2,10.6,7.8,10.6c3.6,0,7.3-1.4,9.6-5.9h-2.2
		c-1.7,3.2-4.5,4-7,4c-4.6,0-6.8-2.7-6-8h16c0.1-0.4,0.3-0.8,0.4-1.4C290.2,245.7,287.2,242.2,281.9,242.2z M286.9,251.8H273
		c1.1-5.2,4.6-7.7,8.5-7.7C285.6,244.1,287.8,246.7,286.9,251.8z"/>
	<path class="st0" d="M311.9,242.2c-4.6,0-7.9,1.9-8.5,5.4c-0.5,2.9,1.1,4.6,4.4,5.4l3.8,0.9c2.4,0.6,3.9,1.3,3.4,3.6
		c-0.5,2.9-3.3,4.1-6.3,4.1c-2.9,0-5.6-0.9-5.5-4h-2.1c-0.5,4.2,2.9,5.9,7.3,5.9c4,0,8.3-1.5,9.1-6c0.6-3.4-1.5-4.7-4.8-5.5
		l-3.7-0.9c-2.7-0.7-3.5-1.7-3.2-3.5c0.4-2.5,2.5-3.6,5.9-3.6c3.1,0,5.1,1,5.1,3.9h2C319.1,244,316.3,242.2,311.9,242.2z"/>
	<path class="st0" d="M333,242.2c-5.1,0-10.4,3.4-11.7,10.7c-1.3,7.3,2.8,10.7,7.9,10.7c5.1,0,10.3-3.4,11.6-10.7
		C342.1,245.6,338.1,242.2,333,242.2z M338.6,252.9c-1.1,6-5.2,8.7-9,8.7c-3.8,0-7.1-2.7-6-8.7s5.2-8.7,9.1-8.7
		C336.5,244.2,339.7,246.9,338.6,252.9z"/>
	<polygon class="st0" points="343.4,263.2 345.7,263.2 350.6,235.5 348.3,235.5 	"/>
	<path class="st0" d="M367.3,254.8c-0.7,4.2-3.7,6.8-7.8,6.8c-4.1,0-5.4-2.6-4.6-6.8l2.1-12.2h-2.3l-2.2,12.6c-1.1,6.3,2,8.4,6,8.4
		c4.9,0,7.5-3.1,8-4.4h0l-0.7,4h2.3l3.6-20.6h-2.3L367.3,254.8z"/>
	<path class="st0" d="M382.2,237.5h-2.3l-0.9,5.1h-3.3l-0.3,2h3.3l-2.5,14.2c-0.6,3.6,1.2,4.7,3.9,4.7c0.8,0,1.4-0.1,2.1-0.2
		l0.3-1.9c-0.5,0.1-0.8,0.1-1.3,0.1c-2.3,0-3-0.8-2.6-3.2l2.4-13.7h4.1l0.3-2h-4.1L382.2,237.5z"/>
	<path class="st0" d="M392.4,234.8c-0.9,0-1.8,0.7-1.9,1.6c-0.2,0.9,0.5,1.6,1.3,1.6c0.9,0,1.8-0.8,1.9-1.6
		C393.9,235.5,393.3,234.8,392.4,234.8z"/>
	<polygon class="st0" points="386.2,263.2 388.6,263.2 392.2,242.6 389.9,242.6 	"/>
	<path class="st0" d="M406.4,242.2c-5.1,0-10.4,3.4-11.7,10.7c-1.3,7.3,2.8,10.7,7.9,10.7c5.1,0,10.3-3.4,11.6-10.7
		C415.5,245.6,411.5,242.2,406.4,242.2z M412,252.9c-1.1,6-5.2,8.7-9,8.7c-3.8,0-7.1-2.7-6-8.7s5.2-8.7,9.1-8.7
		C409.9,244.2,413.1,246.9,412,252.9z"/>
	<path class="st0" d="M430.1,242.2c-4.9,0-7.4,3.1-8,4.4h0l0.7-4h-2.3l-3.6,20.6h2.3l2.1-12.2c0.7-4.2,3.7-6.8,7.8-6.8
		c4.1,0,5.4,2.6,4.6,6.8l-2.2,12.2h2.3l2.2-12.6C437.2,244.3,434.1,242.2,430.1,242.2z"/>
	<path class="st0" d="M449.9,242.2c-4.6,0-7.9,1.9-8.5,5.4c-0.5,2.9,1.1,4.6,4.4,5.4l3.8,0.9c2.4,0.6,3.9,1.3,3.4,3.6
		c-0.5,2.9-3.3,4.1-6.3,4.1c-2.9,0-5.6-0.9-5.5-4H439c-0.5,4.2,2.9,5.9,7.3,5.9c4,0,8.3-1.5,9.1-6c0.6-3.4-1.5-4.7-4.8-5.5l-3.7-0.9
		c-2.7-0.7-3.5-1.7-3.2-3.5c0.4-2.5,2.5-3.6,5.9-3.6c3.1,0,5.1,1,5.1,3.9h2C457.1,244,454.3,242.2,449.9,242.2z"/>
	<path class="st0" d="M487.3,246.3c-1.1-2.7-3.9-4-7-4c-4.9,0-9.9,3.3-11.2,10.7c-1.3,7.4,2.6,10.7,7.5,10.7c3.1,0,6.3-1.3,8.4-4
		l-0.6,3.6h2.3l4.9-27.7h-2.3L487.3,246.3z M486.2,252.9c-1,5.9-5.3,8.7-9,8.7c-3.8,0-7-2.8-5.9-8.7s5.1-8.7,9-8.7
		C484,244.2,487.3,247,486.2,252.9z"/>
	<path class="st0" d="M498.1,234.8c-0.9,0-1.7,0.7-1.9,1.6c-0.2,0.9,0.5,1.6,1.3,1.6c0.9,0,1.8-0.8,1.9-1.6
		C499.6,235.5,499,234.8,498.1,234.8z"/>
	<polygon class="st0" points="491.9,263.2 494.2,263.2 497.9,242.6 495.5,242.6 	"/>
	<path class="st0" d="M518.4,246.2L518.4,246.2c-1.1-2.7-4-4-7-4c-4.8,0-9.8,3.2-11,10.3c-1.2,7.1,2.6,10.3,7.4,10.3
		c3,0,6.3-1.3,8.3-4h0.1l-0.7,4.2c-0.8,4.8-4.4,6.6-8.5,6.6c-3.9,0-6.4-1.7-6-4.3h-2c-0.7,4.4,3.2,6.2,7.7,6.2
		c4.6,0,10-1.9,11.2-8.5l3.6-20.4h-2.3L518.4,246.2z M517.4,252.5c-1,5.7-5.1,8.3-8.9,8.3c-3.8,0-6.8-2.6-5.8-8.3
		c1-5.7,5-8.3,8.8-8.3S518.4,246.9,517.4,252.5z"/>
	<polygon class="st0" points="523.1,263.2 525.4,263.2 529,242.6 526.7,242.6 	"/>
	<path class="st0" d="M529.3,234.8c-0.9,0-1.8,0.7-1.9,1.6c-0.2,0.9,0.5,1.6,1.3,1.6c0.9,0,1.8-0.8,1.9-1.6
		C530.8,235.5,530.1,234.8,529.3,234.8z"/>
	<path class="st0" d="M539.5,237.5h-2.3l-0.9,5.1H533l-0.3,2h3.3l-2.5,14.2c-0.6,3.6,1.2,4.7,3.9,4.7c0.8,0,1.4-0.1,2.1-0.2l0.3-1.9
		c-0.5,0.1-0.8,0.1-1.3,0.1c-2.3,0-3-0.8-2.6-3.2l2.4-13.7h4.1l0.3-2h-4.1L539.5,237.5z"/>
	<path class="st0" d="M555.3,242.2c-5.1,0-8.4,1.8-9.1,5.9l-0.1,0.6h2.3l0.1-0.5c0.5-2.8,2.6-4.2,6.5-4.2c3.8,0,5.5,1.3,4.8,5
		l-0.2,1.1c-0.1,0.6-0.9,1.2-3.3,1.4l-5.5,0.6c-4.4,0.5-6.9,2.5-7.5,5.8c-0.6,3.7,1.7,5.5,5.7,5.5c5,0,8.1-2.9,8.9-4.2h0.1l-0.7,3.8
		h2.3l2.5-14.1C562.9,244.2,560.7,242.2,555.3,242.2z M558.5,256.1c-0.3,1.9-3.5,5.5-8.7,5.5c-2.7,0-4.7-0.9-4.2-3.7
		c0.4-2,1.7-3.4,5.3-3.8l4.8-0.5c2.3-0.3,3.2-0.7,3.4-1.2L558.5,256.1z"/>
	<polygon class="st0" points="564.9,263.2 567.2,263.2 572.1,235.5 569.8,235.5 	"/>
	<path class="st0" d="M584.7,242.2c-5.2,0-10,3.3-11.3,10.8c-1.3,7.1,2,10.6,7.8,10.6c3.6,0,7.3-1.4,9.6-5.9h-2.2
		c-1.7,3.2-4.5,4-7,4c-4.6,0-6.8-2.7-6-8h16c0.1-0.4,0.3-0.8,0.4-1.4C593.1,245.7,590,242.2,584.7,242.2z M589.7,251.8h-13.9
		c1.1-5.2,4.6-7.7,8.5-7.7C588.4,244.1,590.6,246.7,589.7,251.8z"/>
	<path class="st0" d="M605,242.2c-4.6,0-7.9,1.9-8.5,5.4c-0.5,2.9,1.1,4.6,4.4,5.4l3.8,0.9c2.4,0.6,3.9,1.3,3.4,3.6
		c-0.5,2.9-3.3,4.1-6.3,4.1c-2.9,0-5.6-0.9-5.5-4h-2.1c-0.5,4.2,2.9,5.9,7.3,5.9c4,0,8.3-1.5,9.1-6c0.6-3.4-1.5-4.7-4.8-5.5
		l-3.7-0.9c-2.7-0.7-3.5-1.7-3.2-3.5c0.4-2.5,2.5-3.6,5.9-3.6c3.1,0,5.1,1,5.1,3.9h2C612.2,244,609.4,242.2,605,242.2z"/>
	<rect x="41.5" y="41.3" class="st0" width="586.3" height="33.5"/>
	<rect x="632.8" y="257.2" class="st0" width="175.7" height="6.7"/>
</g>
</svg>
